<svg xmlns="http://www.w3.org/2000/svg" xml:space="preserve" viewBox="0 0 512 512" id="weight-scale">
  <path d="m486.113 463.338-50.13-258.026c-3.648-18.778-19.557-31.894-38.686-31.894h-99.925v-38.326h60.315a8 8 0 0 0 8-8v-21.839h34.914c29.018 0 52.626-23.608 52.626-52.626V8a8 8 0 0 0-8-8H66.772a8 8 0 0 0-8 8v44.627c0 29.018 23.608 52.626 52.626 52.626h34.915v21.839a8 8 0 0 0 8 8h60.315v38.326h-99.925c-19.129 0-35.037 13.115-38.686 31.894l-50.13 258.026a8 8 0 0 0 7.853 9.525h34.454V504a8 8 0 0 0 8 8h359.613a8 8 0 0 0 8-8v-31.137h34.454a7.999 7.999 0 0 0 7.852-9.525zM74.772 52.627V16h362.455v36.627c0 20.195-16.431 36.626-36.626 36.626H111.398c-20.195 0-36.626-16.431-36.626-36.626zm87.541 52.626h187.374v13.839H162.313v-13.839zm68.315 29.839h50.744v38.326h-50.744v-38.326zM427.806 496H84.193v-23.137h343.613V496zM43.443 456.863l48.28-248.5c2.167-11.155 11.617-18.945 22.979-18.945h282.595c11.363 0 20.812 7.79 22.979 18.944l48.28 248.501H43.443zM256 225.625c-53.771 0-97.516 43.745-97.516 97.516 0 53.762 43.732 97.501 97.49 97.515l.026.001.026-.001c53.759-.014 97.49-43.753 97.49-97.515 0-53.771-43.745-97.516-97.516-97.516zm8 178.634v-17.431a8 8 0 0 0-16 0v17.431c-38.574-3.776-69.344-34.545-73.119-73.119h17.431a8 8 0 0 0 0-16h-17.431c3.776-38.574 34.545-69.343 73.119-73.119v17.431a8 8 0 0 0 16 0v-17.431c38.573 3.776 69.343 34.545 73.119 73.119h-17.432a8 8 0 0 0 0 16h17.432c-3.776 38.574-34.546 69.344-73.119 73.119zm23.613-124.046-20.907 20.907A24.336 24.336 0 0 0 256 298.651c-13.503 0-24.49 10.986-24.49 24.489 0 13.504 10.986 24.49 24.49 24.49s24.49-10.986 24.49-24.49c0-3.837-.889-7.47-2.47-10.707l20.907-20.907a8 8 0 0 0-11.314-11.313zM256 331.631c-4.681 0-8.49-3.809-8.49-8.49s3.809-8.489 8.49-8.489 8.49 3.809 8.49 8.489c0 4.681-3.809 8.49-8.49 8.49z"></path>
</svg>
